<mxfile host="app.diagrams.net" agent="Mozilla/5.0 (Windows NT 10.0; Win64; x64) AppleWebKit/537.36 (KHTML, like Gecko) Chrome/131.0.0.0 Safari/537.36" version="25.0.3">
  <diagram name="Page-1" id="Amj5XGmygzPhmc0-MUe8">
    <mxGraphModel dx="3018" dy="1260" grid="1" gridSize="10" guides="1" tooltips="1" connect="1" arrows="1" fold="1" page="1" pageScale="1" pageWidth="850" pageHeight="1100" math="0" shadow="0">
      <root>
        <mxCell id="0" />
        <mxCell id="1" parent="0" />
        <mxCell id="z5e_tdk40vrSMLF-mHwW-2" value="convert_to_&lt;div&gt;letters()&lt;/div&gt;" style="shape=process;whiteSpace=wrap;html=1;backgroundOutline=1;" vertex="1" parent="1">
          <mxGeometry x="320" y="40" width="120" height="40" as="geometry" />
        </mxCell>
        <mxCell id="z5e_tdk40vrSMLF-mHwW-3" value="массив кликов и длина" style="rounded=0;whiteSpace=wrap;html=1;" vertex="1" parent="1">
          <mxGeometry x="320" y="120" width="120" height="40" as="geometry" />
        </mxCell>
        <mxCell id="z5e_tdk40vrSMLF-mHwW-4" value="итерация по длине" style="shape=hexagon;perimeter=hexagonPerimeter2;whiteSpace=wrap;html=1;fixedSize=1;" vertex="1" parent="1">
          <mxGeometry x="320" y="280" width="120" height="40" as="geometry" />
        </mxCell>
        <mxCell id="z5e_tdk40vrSMLF-mHwW-5" value="key, press_count" style="rounded=0;whiteSpace=wrap;html=1;" vertex="1" parent="1">
          <mxGeometry x="320" y="360" width="120" height="40" as="geometry" />
        </mxCell>
        <mxCell id="z5e_tdk40vrSMLF-mHwW-6" value="итерация по повт-орному клику" style="shape=hexagon;perimeter=hexagonPerimeter2;whiteSpace=wrap;html=1;fixedSize=1;" vertex="1" parent="1">
          <mxGeometry x="320" y="440" width="120" height="40" as="geometry" />
        </mxCell>
        <mxCell id="z5e_tdk40vrSMLF-mHwW-7" value="press_count++" style="rounded=0;whiteSpace=wrap;html=1;" vertex="1" parent="1">
          <mxGeometry x="320" y="520" width="120" height="40" as="geometry" />
        </mxCell>
        <mxCell id="z5e_tdk40vrSMLF-mHwW-8" value="" style="endArrow=none;html=1;rounded=0;entryX=0.5;entryY=1;entryDx=0;entryDy=0;exitX=0.5;exitY=0;exitDx=0;exitDy=0;" edge="1" parent="1" source="z5e_tdk40vrSMLF-mHwW-7" target="z5e_tdk40vrSMLF-mHwW-6">
          <mxGeometry width="50" height="50" relative="1" as="geometry">
            <mxPoint x="400" y="550" as="sourcePoint" />
            <mxPoint x="450" y="500" as="targetPoint" />
          </mxGeometry>
        </mxCell>
        <mxCell id="z5e_tdk40vrSMLF-mHwW-9" value="" style="endArrow=none;html=1;rounded=0;entryX=0.5;entryY=1;entryDx=0;entryDy=0;exitX=0.5;exitY=0;exitDx=0;exitDy=0;" edge="1" parent="1">
          <mxGeometry width="50" height="50" relative="1" as="geometry">
            <mxPoint x="379.71" y="440" as="sourcePoint" />
            <mxPoint x="379.71" y="400" as="targetPoint" />
          </mxGeometry>
        </mxCell>
        <mxCell id="z5e_tdk40vrSMLF-mHwW-10" value="" style="endArrow=none;html=1;rounded=0;entryX=0.5;entryY=1;entryDx=0;entryDy=0;exitX=0.5;exitY=0;exitDx=0;exitDy=0;" edge="1" parent="1">
          <mxGeometry width="50" height="50" relative="1" as="geometry">
            <mxPoint x="379.71" y="360" as="sourcePoint" />
            <mxPoint x="379.71" y="320" as="targetPoint" />
          </mxGeometry>
        </mxCell>
        <mxCell id="z5e_tdk40vrSMLF-mHwW-11" value="" style="endArrow=none;html=1;rounded=0;entryX=0.5;entryY=1;entryDx=0;entryDy=0;exitX=0.5;exitY=0;exitDx=0;exitDy=0;" edge="1" parent="1">
          <mxGeometry width="50" height="50" relative="1" as="geometry">
            <mxPoint x="379.71" y="280" as="sourcePoint" />
            <mxPoint x="379.71" y="240" as="targetPoint" />
          </mxGeometry>
        </mxCell>
        <mxCell id="z5e_tdk40vrSMLF-mHwW-12" value="" style="endArrow=none;html=1;rounded=0;entryX=0.5;entryY=1;entryDx=0;entryDy=0;exitX=0.5;exitY=0;exitDx=0;exitDy=0;" edge="1" parent="1">
          <mxGeometry width="50" height="50" relative="1" as="geometry">
            <mxPoint x="379.71" y="120" as="sourcePoint" />
            <mxPoint x="379.71" y="80" as="targetPoint" />
          </mxGeometry>
        </mxCell>
        <mxCell id="z5e_tdk40vrSMLF-mHwW-13" value="" style="endArrow=classic;html=1;rounded=0;exitX=0.5;exitY=1;exitDx=0;exitDy=0;entryX=0;entryY=0.5;entryDx=0;entryDy=0;" edge="1" parent="1" source="z5e_tdk40vrSMLF-mHwW-7" target="z5e_tdk40vrSMLF-mHwW-6">
          <mxGeometry width="50" height="50" relative="1" as="geometry">
            <mxPoint x="380" y="500" as="sourcePoint" />
            <mxPoint x="430" y="450" as="targetPoint" />
            <Array as="points">
              <mxPoint x="380" y="580" />
              <mxPoint x="300" y="580" />
              <mxPoint x="300" y="460" />
            </Array>
          </mxGeometry>
        </mxCell>
        <mxCell id="z5e_tdk40vrSMLF-mHwW-15" value="key == 2 ?" style="rhombus;whiteSpace=wrap;html=1;" vertex="1" parent="1">
          <mxGeometry x="332.5" y="620" width="95" height="50" as="geometry" />
        </mxCell>
        <mxCell id="z5e_tdk40vrSMLF-mHwW-17" value="last_char = &#39;a&#39; || &#39;b&#39; || &#39;c&#39;" style="rounded=0;whiteSpace=wrap;html=1;" vertex="1" parent="1">
          <mxGeometry x="460" y="625" width="120" height="40" as="geometry" />
        </mxCell>
        <mxCell id="z5e_tdk40vrSMLF-mHwW-18" value="key == 3 ?" style="rhombus;whiteSpace=wrap;html=1;" vertex="1" parent="1">
          <mxGeometry x="332.5" y="690" width="95" height="50" as="geometry" />
        </mxCell>
        <mxCell id="z5e_tdk40vrSMLF-mHwW-19" value="last_char = &#39;d&#39; || &#39;e&#39; || &#39;f&#39;" style="rounded=0;whiteSpace=wrap;html=1;" vertex="1" parent="1">
          <mxGeometry x="460" y="695" width="120" height="40" as="geometry" />
        </mxCell>
        <mxCell id="z5e_tdk40vrSMLF-mHwW-20" value="key == 4 ?" style="rhombus;whiteSpace=wrap;html=1;" vertex="1" parent="1">
          <mxGeometry x="332.5" y="760" width="95" height="50" as="geometry" />
        </mxCell>
        <mxCell id="z5e_tdk40vrSMLF-mHwW-21" value="last_char = &#39;g&#39; || &#39;h&#39; || &#39;i&#39;" style="rounded=0;whiteSpace=wrap;html=1;" vertex="1" parent="1">
          <mxGeometry x="460" y="765" width="120" height="40" as="geometry" />
        </mxCell>
        <mxCell id="z5e_tdk40vrSMLF-mHwW-22" value="key == 5 ?" style="rhombus;whiteSpace=wrap;html=1;" vertex="1" parent="1">
          <mxGeometry x="332.5" y="830" width="95" height="50" as="geometry" />
        </mxCell>
        <mxCell id="z5e_tdk40vrSMLF-mHwW-23" value="last_char = &#39;j&#39; || &#39;k&#39; || &#39;l&#39;" style="rounded=0;whiteSpace=wrap;html=1;" vertex="1" parent="1">
          <mxGeometry x="460" y="835" width="120" height="40" as="geometry" />
        </mxCell>
        <mxCell id="z5e_tdk40vrSMLF-mHwW-24" value="key == 6 ?" style="rhombus;whiteSpace=wrap;html=1;" vertex="1" parent="1">
          <mxGeometry x="332.5" y="900" width="95" height="50" as="geometry" />
        </mxCell>
        <mxCell id="z5e_tdk40vrSMLF-mHwW-25" value="last_char = &#39;m&#39; || &#39;n&#39; || &#39;o&#39;" style="rounded=0;whiteSpace=wrap;html=1;" vertex="1" parent="1">
          <mxGeometry x="460" y="905" width="120" height="40" as="geometry" />
        </mxCell>
        <mxCell id="z5e_tdk40vrSMLF-mHwW-26" value="key == 7 ?" style="rhombus;whiteSpace=wrap;html=1;" vertex="1" parent="1">
          <mxGeometry x="332.5" y="970" width="95" height="50" as="geometry" />
        </mxCell>
        <mxCell id="z5e_tdk40vrSMLF-mHwW-27" value="last_char = &#39;p&#39; || &#39;q&#39; || &#39;r&#39; || &#39;s&#39;" style="rounded=0;whiteSpace=wrap;html=1;" vertex="1" parent="1">
          <mxGeometry x="460" y="975" width="120" height="40" as="geometry" />
        </mxCell>
        <mxCell id="z5e_tdk40vrSMLF-mHwW-28" value="key == 8 ?" style="rhombus;whiteSpace=wrap;html=1;" vertex="1" parent="1">
          <mxGeometry x="332.5" y="1040" width="95" height="50" as="geometry" />
        </mxCell>
        <mxCell id="z5e_tdk40vrSMLF-mHwW-29" value="last_char = &#39;t&#39; || &#39;u&#39; || &#39;v&#39;" style="rounded=0;whiteSpace=wrap;html=1;" vertex="1" parent="1">
          <mxGeometry x="460" y="1045" width="120" height="40" as="geometry" />
        </mxCell>
        <mxCell id="z5e_tdk40vrSMLF-mHwW-30" value="key == 9 ?" style="rhombus;whiteSpace=wrap;html=1;" vertex="1" parent="1">
          <mxGeometry x="332.5" y="1110" width="95" height="50" as="geometry" />
        </mxCell>
        <mxCell id="z5e_tdk40vrSMLF-mHwW-31" value="last_char = &#39;w&#39; || &#39;x&#39; || &#39;y&#39; || &#39;z&#39;" style="rounded=0;whiteSpace=wrap;html=1;" vertex="1" parent="1">
          <mxGeometry x="460" y="1115" width="120" height="40" as="geometry" />
        </mxCell>
        <mxCell id="z5e_tdk40vrSMLF-mHwW-32" value="" style="endArrow=classic;html=1;rounded=0;entryX=0;entryY=0.5;entryDx=0;entryDy=0;exitX=1;exitY=0.5;exitDx=0;exitDy=0;" edge="1" parent="1" source="z5e_tdk40vrSMLF-mHwW-15" target="z5e_tdk40vrSMLF-mHwW-17">
          <mxGeometry width="50" height="50" relative="1" as="geometry">
            <mxPoint x="430" y="680" as="sourcePoint" />
            <mxPoint x="570" y="670" as="targetPoint" />
          </mxGeometry>
        </mxCell>
        <mxCell id="z5e_tdk40vrSMLF-mHwW-33" value="" style="endArrow=classic;html=1;rounded=0;entryX=0;entryY=0.5;entryDx=0;entryDy=0;exitX=1;exitY=0.5;exitDx=0;exitDy=0;" edge="1" parent="1">
          <mxGeometry width="50" height="50" relative="1" as="geometry">
            <mxPoint x="428" y="714.86" as="sourcePoint" />
            <mxPoint x="460" y="714.86" as="targetPoint" />
          </mxGeometry>
        </mxCell>
        <mxCell id="z5e_tdk40vrSMLF-mHwW-34" value="" style="endArrow=classic;html=1;rounded=0;entryX=0;entryY=0.5;entryDx=0;entryDy=0;exitX=1;exitY=0.5;exitDx=0;exitDy=0;" edge="1" parent="1">
          <mxGeometry width="50" height="50" relative="1" as="geometry">
            <mxPoint x="428" y="785" as="sourcePoint" />
            <mxPoint x="460" y="785" as="targetPoint" />
          </mxGeometry>
        </mxCell>
        <mxCell id="z5e_tdk40vrSMLF-mHwW-35" value="" style="endArrow=classic;html=1;rounded=0;entryX=0;entryY=0.5;entryDx=0;entryDy=0;exitX=1;exitY=0.5;exitDx=0;exitDy=0;" edge="1" parent="1">
          <mxGeometry width="50" height="50" relative="1" as="geometry">
            <mxPoint x="428" y="854.86" as="sourcePoint" />
            <mxPoint x="460" y="854.86" as="targetPoint" />
          </mxGeometry>
        </mxCell>
        <mxCell id="z5e_tdk40vrSMLF-mHwW-36" value="" style="endArrow=classic;html=1;rounded=0;entryX=0;entryY=0.5;entryDx=0;entryDy=0;exitX=1;exitY=0.5;exitDx=0;exitDy=0;" edge="1" parent="1">
          <mxGeometry width="50" height="50" relative="1" as="geometry">
            <mxPoint x="428" y="925" as="sourcePoint" />
            <mxPoint x="460" y="925" as="targetPoint" />
          </mxGeometry>
        </mxCell>
        <mxCell id="z5e_tdk40vrSMLF-mHwW-37" value="" style="endArrow=classic;html=1;rounded=0;entryX=0;entryY=0.5;entryDx=0;entryDy=0;exitX=1;exitY=0.5;exitDx=0;exitDy=0;" edge="1" parent="1">
          <mxGeometry width="50" height="50" relative="1" as="geometry">
            <mxPoint x="428" y="995" as="sourcePoint" />
            <mxPoint x="460" y="995" as="targetPoint" />
          </mxGeometry>
        </mxCell>
        <mxCell id="z5e_tdk40vrSMLF-mHwW-38" value="" style="endArrow=classic;html=1;rounded=0;entryX=0;entryY=0.5;entryDx=0;entryDy=0;exitX=1;exitY=0.5;exitDx=0;exitDy=0;" edge="1" parent="1">
          <mxGeometry width="50" height="50" relative="1" as="geometry">
            <mxPoint x="428" y="1064.92" as="sourcePoint" />
            <mxPoint x="460" y="1064.92" as="targetPoint" />
          </mxGeometry>
        </mxCell>
        <mxCell id="z5e_tdk40vrSMLF-mHwW-39" value="" style="endArrow=classic;html=1;rounded=0;entryX=0;entryY=0.5;entryDx=0;entryDy=0;exitX=1;exitY=0.5;exitDx=0;exitDy=0;" edge="1" parent="1">
          <mxGeometry width="50" height="50" relative="1" as="geometry">
            <mxPoint x="428" y="1134.92" as="sourcePoint" />
            <mxPoint x="460" y="1134.92" as="targetPoint" />
          </mxGeometry>
        </mxCell>
        <mxCell id="z5e_tdk40vrSMLF-mHwW-40" value="" style="endArrow=classic;html=1;rounded=0;exitX=0.5;exitY=1;exitDx=0;exitDy=0;entryX=0.5;entryY=0;entryDx=0;entryDy=0;" edge="1" parent="1" source="z5e_tdk40vrSMLF-mHwW-15" target="z5e_tdk40vrSMLF-mHwW-18">
          <mxGeometry width="50" height="50" relative="1" as="geometry">
            <mxPoint x="320" y="710" as="sourcePoint" />
            <mxPoint x="370" y="660" as="targetPoint" />
          </mxGeometry>
        </mxCell>
        <mxCell id="z5e_tdk40vrSMLF-mHwW-41" value="" style="endArrow=classic;html=1;rounded=0;exitX=0.5;exitY=1;exitDx=0;exitDy=0;entryX=0.5;entryY=0;entryDx=0;entryDy=0;" edge="1" parent="1">
          <mxGeometry width="50" height="50" relative="1" as="geometry">
            <mxPoint x="379.83" y="740" as="sourcePoint" />
            <mxPoint x="379.83" y="760" as="targetPoint" />
          </mxGeometry>
        </mxCell>
        <mxCell id="z5e_tdk40vrSMLF-mHwW-43" value="" style="endArrow=classic;html=1;rounded=0;exitX=0.5;exitY=1;exitDx=0;exitDy=0;entryX=0.5;entryY=0;entryDx=0;entryDy=0;" edge="1" parent="1">
          <mxGeometry width="50" height="50" relative="1" as="geometry">
            <mxPoint x="379.85999999999996" y="810" as="sourcePoint" />
            <mxPoint x="379.85999999999996" y="830" as="targetPoint" />
          </mxGeometry>
        </mxCell>
        <mxCell id="z5e_tdk40vrSMLF-mHwW-44" value="" style="endArrow=classic;html=1;rounded=0;exitX=0.5;exitY=1;exitDx=0;exitDy=0;entryX=0.5;entryY=0;entryDx=0;entryDy=0;" edge="1" parent="1">
          <mxGeometry width="50" height="50" relative="1" as="geometry">
            <mxPoint x="379.85999999999996" y="880" as="sourcePoint" />
            <mxPoint x="379.85999999999996" y="900" as="targetPoint" />
          </mxGeometry>
        </mxCell>
        <mxCell id="z5e_tdk40vrSMLF-mHwW-45" value="" style="endArrow=classic;html=1;rounded=0;exitX=0.5;exitY=1;exitDx=0;exitDy=0;entryX=0.5;entryY=0;entryDx=0;entryDy=0;" edge="1" parent="1">
          <mxGeometry width="50" height="50" relative="1" as="geometry">
            <mxPoint x="379.83" y="950" as="sourcePoint" />
            <mxPoint x="379.83" y="970" as="targetPoint" />
          </mxGeometry>
        </mxCell>
        <mxCell id="z5e_tdk40vrSMLF-mHwW-46" value="" style="endArrow=classic;html=1;rounded=0;exitX=0.5;exitY=1;exitDx=0;exitDy=0;entryX=0.5;entryY=0;entryDx=0;entryDy=0;" edge="1" parent="1">
          <mxGeometry width="50" height="50" relative="1" as="geometry">
            <mxPoint x="379.83" y="1020" as="sourcePoint" />
            <mxPoint x="379.83" y="1040" as="targetPoint" />
          </mxGeometry>
        </mxCell>
        <mxCell id="z5e_tdk40vrSMLF-mHwW-47" value="" style="endArrow=classic;html=1;rounded=0;exitX=0.5;exitY=1;exitDx=0;exitDy=0;entryX=0.5;entryY=0;entryDx=0;entryDy=0;" edge="1" parent="1">
          <mxGeometry width="50" height="50" relative="1" as="geometry">
            <mxPoint x="379.83" y="1090" as="sourcePoint" />
            <mxPoint x="379.83" y="1110" as="targetPoint" />
          </mxGeometry>
        </mxCell>
        <mxCell id="z5e_tdk40vrSMLF-mHwW-48" value="Да" style="text;html=1;align=center;verticalAlign=middle;resizable=0;points=[];autosize=1;strokeColor=none;fillColor=none;" vertex="1" parent="1">
          <mxGeometry x="420" y="620" width="40" height="30" as="geometry" />
        </mxCell>
        <mxCell id="z5e_tdk40vrSMLF-mHwW-49" value="Да" style="text;html=1;align=center;verticalAlign=middle;resizable=0;points=[];autosize=1;strokeColor=none;fillColor=none;" vertex="1" parent="1">
          <mxGeometry x="420" y="690" width="40" height="30" as="geometry" />
        </mxCell>
        <mxCell id="z5e_tdk40vrSMLF-mHwW-50" value="Да" style="text;html=1;align=center;verticalAlign=middle;resizable=0;points=[];autosize=1;strokeColor=none;fillColor=none;" vertex="1" parent="1">
          <mxGeometry x="420" y="760" width="40" height="30" as="geometry" />
        </mxCell>
        <mxCell id="z5e_tdk40vrSMLF-mHwW-51" value="Да" style="text;html=1;align=center;verticalAlign=middle;resizable=0;points=[];autosize=1;strokeColor=none;fillColor=none;" vertex="1" parent="1">
          <mxGeometry x="420" y="830" width="40" height="30" as="geometry" />
        </mxCell>
        <mxCell id="z5e_tdk40vrSMLF-mHwW-52" value="Да" style="text;html=1;align=center;verticalAlign=middle;resizable=0;points=[];autosize=1;strokeColor=none;fillColor=none;" vertex="1" parent="1">
          <mxGeometry x="420" y="900" width="40" height="30" as="geometry" />
        </mxCell>
        <mxCell id="z5e_tdk40vrSMLF-mHwW-53" value="Да" style="text;html=1;align=center;verticalAlign=middle;resizable=0;points=[];autosize=1;strokeColor=none;fillColor=none;" vertex="1" parent="1">
          <mxGeometry x="420" y="970" width="40" height="30" as="geometry" />
        </mxCell>
        <mxCell id="z5e_tdk40vrSMLF-mHwW-54" value="Да" style="text;html=1;align=center;verticalAlign=middle;resizable=0;points=[];autosize=1;strokeColor=none;fillColor=none;" vertex="1" parent="1">
          <mxGeometry x="420" y="1040" width="40" height="30" as="geometry" />
        </mxCell>
        <mxCell id="z5e_tdk40vrSMLF-mHwW-55" value="Да" style="text;html=1;align=center;verticalAlign=middle;resizable=0;points=[];autosize=1;strokeColor=none;fillColor=none;" vertex="1" parent="1">
          <mxGeometry x="420" y="1110" width="40" height="30" as="geometry" />
        </mxCell>
        <mxCell id="z5e_tdk40vrSMLF-mHwW-56" value="Нет" style="text;html=1;align=center;verticalAlign=middle;whiteSpace=wrap;rounded=0;" vertex="1" parent="1">
          <mxGeometry x="330" y="665" width="60" height="30" as="geometry" />
        </mxCell>
        <mxCell id="z5e_tdk40vrSMLF-mHwW-57" value="Нет" style="text;html=1;align=center;verticalAlign=middle;whiteSpace=wrap;rounded=0;" vertex="1" parent="1">
          <mxGeometry x="330" y="735" width="60" height="30" as="geometry" />
        </mxCell>
        <mxCell id="z5e_tdk40vrSMLF-mHwW-58" value="Нет" style="text;html=1;align=center;verticalAlign=middle;whiteSpace=wrap;rounded=0;" vertex="1" parent="1">
          <mxGeometry x="332.5" y="805" width="60" height="30" as="geometry" />
        </mxCell>
        <mxCell id="z5e_tdk40vrSMLF-mHwW-59" value="Нет" style="text;html=1;align=center;verticalAlign=middle;whiteSpace=wrap;rounded=0;" vertex="1" parent="1">
          <mxGeometry x="332.5" y="875" width="60" height="30" as="geometry" />
        </mxCell>
        <mxCell id="z5e_tdk40vrSMLF-mHwW-60" value="Нет" style="text;html=1;align=center;verticalAlign=middle;whiteSpace=wrap;rounded=0;" vertex="1" parent="1">
          <mxGeometry x="327.5" y="945" width="60" height="30" as="geometry" />
        </mxCell>
        <mxCell id="z5e_tdk40vrSMLF-mHwW-61" value="Нет" style="text;html=1;align=center;verticalAlign=middle;whiteSpace=wrap;rounded=0;" vertex="1" parent="1">
          <mxGeometry x="327.5" y="1015" width="60" height="30" as="geometry" />
        </mxCell>
        <mxCell id="z5e_tdk40vrSMLF-mHwW-62" value="Нет" style="text;html=1;align=center;verticalAlign=middle;whiteSpace=wrap;rounded=0;" vertex="1" parent="1">
          <mxGeometry x="330" y="1085" width="60" height="30" as="geometry" />
        </mxCell>
        <mxCell id="z5e_tdk40vrSMLF-mHwW-64" value="" style="endArrow=none;html=1;rounded=0;exitX=1;exitY=0.5;exitDx=0;exitDy=0;entryX=0.5;entryY=0;entryDx=0;entryDy=0;" edge="1" parent="1" source="z5e_tdk40vrSMLF-mHwW-6" target="z5e_tdk40vrSMLF-mHwW-15">
          <mxGeometry width="50" height="50" relative="1" as="geometry">
            <mxPoint x="350" y="590" as="sourcePoint" />
            <mxPoint x="400" y="540" as="targetPoint" />
            <Array as="points">
              <mxPoint x="470" y="460" />
              <mxPoint x="470" y="600" />
              <mxPoint x="380" y="600" />
            </Array>
          </mxGeometry>
        </mxCell>
        <mxCell id="z5e_tdk40vrSMLF-mHwW-65" value="" style="endArrow=classic;html=1;rounded=0;exitX=0.5;exitY=1;exitDx=0;exitDy=0;entryX=0;entryY=0.5;entryDx=0;entryDy=0;" edge="1" parent="1" source="z5e_tdk40vrSMLF-mHwW-30" target="z5e_tdk40vrSMLF-mHwW-4">
          <mxGeometry width="50" height="50" relative="1" as="geometry">
            <mxPoint x="400" y="960" as="sourcePoint" />
            <mxPoint x="260" y="720" as="targetPoint" />
            <Array as="points">
              <mxPoint x="380" y="1190" />
              <mxPoint x="270" y="1190" />
              <mxPoint x="270" y="1080" />
              <mxPoint x="270" y="300" />
            </Array>
          </mxGeometry>
        </mxCell>
        <mxCell id="z5e_tdk40vrSMLF-mHwW-66" value="" style="endArrow=none;html=1;rounded=0;" edge="1" parent="1">
          <mxGeometry width="50" height="50" relative="1" as="geometry">
            <mxPoint x="380" y="1190" as="sourcePoint" />
            <mxPoint x="620" y="645" as="targetPoint" />
            <Array as="points">
              <mxPoint x="620" y="1190" />
            </Array>
          </mxGeometry>
        </mxCell>
        <mxCell id="z5e_tdk40vrSMLF-mHwW-67" value="" style="endArrow=none;html=1;rounded=0;exitX=1;exitY=0.5;exitDx=0;exitDy=0;" edge="1" parent="1" source="z5e_tdk40vrSMLF-mHwW-17">
          <mxGeometry width="50" height="50" relative="1" as="geometry">
            <mxPoint x="580" y="730" as="sourcePoint" />
            <mxPoint x="620" y="645" as="targetPoint" />
          </mxGeometry>
        </mxCell>
        <mxCell id="z5e_tdk40vrSMLF-mHwW-68" value="" style="endArrow=none;html=1;rounded=0;exitX=1;exitY=0.5;exitDx=0;exitDy=0;" edge="1" parent="1">
          <mxGeometry width="50" height="50" relative="1" as="geometry">
            <mxPoint x="580" y="714.83" as="sourcePoint" />
            <mxPoint x="620" y="714.83" as="targetPoint" />
          </mxGeometry>
        </mxCell>
        <mxCell id="z5e_tdk40vrSMLF-mHwW-69" value="" style="endArrow=none;html=1;rounded=0;exitX=1;exitY=0.5;exitDx=0;exitDy=0;" edge="1" parent="1">
          <mxGeometry width="50" height="50" relative="1" as="geometry">
            <mxPoint x="580" y="784.8" as="sourcePoint" />
            <mxPoint x="620" y="784.8" as="targetPoint" />
          </mxGeometry>
        </mxCell>
        <mxCell id="z5e_tdk40vrSMLF-mHwW-70" value="" style="endArrow=none;html=1;rounded=0;exitX=1;exitY=0.5;exitDx=0;exitDy=0;" edge="1" parent="1">
          <mxGeometry width="50" height="50" relative="1" as="geometry">
            <mxPoint x="580" y="854.6300000000001" as="sourcePoint" />
            <mxPoint x="620" y="854.6300000000001" as="targetPoint" />
          </mxGeometry>
        </mxCell>
        <mxCell id="z5e_tdk40vrSMLF-mHwW-71" value="" style="endArrow=none;html=1;rounded=0;exitX=1;exitY=0.5;exitDx=0;exitDy=0;" edge="1" parent="1">
          <mxGeometry width="50" height="50" relative="1" as="geometry">
            <mxPoint x="580" y="924.9" as="sourcePoint" />
            <mxPoint x="620" y="924.9" as="targetPoint" />
          </mxGeometry>
        </mxCell>
        <mxCell id="z5e_tdk40vrSMLF-mHwW-72" value="" style="endArrow=none;html=1;rounded=0;exitX=1;exitY=0.5;exitDx=0;exitDy=0;" edge="1" parent="1">
          <mxGeometry width="50" height="50" relative="1" as="geometry">
            <mxPoint x="580" y="994.7299999999999" as="sourcePoint" />
            <mxPoint x="620" y="994.7299999999999" as="targetPoint" />
          </mxGeometry>
        </mxCell>
        <mxCell id="z5e_tdk40vrSMLF-mHwW-73" value="" style="endArrow=none;html=1;rounded=0;exitX=1;exitY=0.5;exitDx=0;exitDy=0;" edge="1" parent="1">
          <mxGeometry width="50" height="50" relative="1" as="geometry">
            <mxPoint x="580" y="1064.7" as="sourcePoint" />
            <mxPoint x="620" y="1064.7" as="targetPoint" />
          </mxGeometry>
        </mxCell>
        <mxCell id="z5e_tdk40vrSMLF-mHwW-74" value="" style="endArrow=none;html=1;rounded=0;exitX=1;exitY=0.5;exitDx=0;exitDy=0;" edge="1" parent="1">
          <mxGeometry width="50" height="50" relative="1" as="geometry">
            <mxPoint x="580" y="1134.5300000000002" as="sourcePoint" />
            <mxPoint x="620" y="1134.5300000000002" as="targetPoint" />
          </mxGeometry>
        </mxCell>
        <mxCell id="z5e_tdk40vrSMLF-mHwW-75" value="Нет" style="text;html=1;align=center;verticalAlign=middle;whiteSpace=wrap;rounded=0;" vertex="1" parent="1">
          <mxGeometry x="327.5" y="1155" width="60" height="30" as="geometry" />
        </mxCell>
        <mxCell id="z5e_tdk40vrSMLF-mHwW-76" value="return last_char" style="rounded=1;whiteSpace=wrap;html=1;" vertex="1" parent="1">
          <mxGeometry x="320" y="1280" width="120" height="40" as="geometry" />
        </mxCell>
        <mxCell id="z5e_tdk40vrSMLF-mHwW-77" value="" style="endArrow=none;html=1;rounded=0;entryX=1;entryY=0.5;entryDx=0;entryDy=0;exitX=0.5;exitY=0;exitDx=0;exitDy=0;" edge="1" parent="1" source="z5e_tdk40vrSMLF-mHwW-76" target="z5e_tdk40vrSMLF-mHwW-4">
          <mxGeometry width="50" height="50" relative="1" as="geometry">
            <mxPoint x="420" y="830" as="sourcePoint" />
            <mxPoint x="470" y="780" as="targetPoint" />
            <Array as="points">
              <mxPoint x="380" y="1240" />
              <mxPoint x="640" y="1240" />
              <mxPoint x="640" y="300" />
            </Array>
          </mxGeometry>
        </mxCell>
        <mxCell id="z5e_tdk40vrSMLF-mHwW-78" value="last_char" style="rounded=0;whiteSpace=wrap;html=1;" vertex="1" parent="1">
          <mxGeometry x="320" y="200" width="120" height="40" as="geometry" />
        </mxCell>
        <mxCell id="z5e_tdk40vrSMLF-mHwW-79" value="" style="endArrow=none;html=1;rounded=0;entryX=0.5;entryY=1;entryDx=0;entryDy=0;exitX=0.5;exitY=0;exitDx=0;exitDy=0;" edge="1" parent="1">
          <mxGeometry width="50" height="50" relative="1" as="geometry">
            <mxPoint x="379.73999999999995" y="200" as="sourcePoint" />
            <mxPoint x="379.73999999999995" y="160" as="targetPoint" />
          </mxGeometry>
        </mxCell>
      </root>
    </mxGraphModel>
  </diagram>
</mxfile>
